# xmcd CD database file
#
# Track frame offsets:
#	150
#	10123
#	57489
#	101289
#	170055
#	192245
#	198429
#	210381
#	227305
#	234184
#	248545
#	259270
#	304060
#	317252
#
# Disc length: 4495 seconds
#
# Revision: 0
# Processed by: cddbd v1.5.2PL0 Copyright (c) Steve Scherf et al.
# Submitted via: CDex 1.51
#
DISCID=a7118d0e
DTITLE=Wind Project of Schärding - Konzert März 2007
DYEAR=2007
DGENRE=Wind Band
TTITLE0=Anton Bruckner - Eingangsthema aus dem Finale der 8. Symphonie
TTITLE1=Thomas Doss - Orientales
TTITLE2=Claude T. Smith - Fantasia for Alto Saxophone
TTITLE3=Marc Camphouse - Whatsoever things
TTITLE4=Leonard Bernstein - Candide Overture
TTITLE5=Percy Grainger - Lincolnshire Posy I. Dublin Bay
TTITLE6=Percy Grainger - Lincolnshire Posy II. Harkstow Grange
TTITLE7=Percy Grainger - Lincolnshire Posy III. Rufford Park Poachers
TTITLE8=Percy Grainger - Lincolnshire Posy IV. The brisk young Sailor
TTITLE9=Percy Grainger - Lincolnshire Posy V. Lord Melbourne
TTITLE10=Percy Grainger - Lincolnshire Posy VI. The lost Lady found
TTITLE11=Michael Kamen - Robin Hood Prince of Thieves
TTITLE12=Johannes Brahms - Ungarischer Tanz Nr. 5
TTITLE13=Eric Whitacre - Lux Aurumque
EXTD=YEAR: 2007
EXTT0=
EXTT1=
EXTT2=
EXTT3=
EXTT4=
EXTT5=
EXTT6=
EXTT7=
EXTT8=
EXTT9=
EXTT10=
EXTT11=
EXTT12=
EXTT13=
PLAYORDER=
